<?xml version="1.0" encoding="UTF-8" standalone="no"?>
<!-- Created with Inkscape (http://www.inkscape.org/) -->

<svg
   xmlns:dc="http://purl.org/dc/elements/1.1/"
   xmlns:cc="http://creativecommons.org/ns#"
   xmlns:rdf="http://www.w3.org/1999/02/22-rdf-syntax-ns#"
   xmlns:svg="http://www.w3.org/2000/svg"
   xmlns="http://www.w3.org/2000/svg"
   xmlns:sodipodi="http://sodipodi.sourceforge.net/DTD/sodipodi-0.dtd"
   xmlns:inkscape="http://www.inkscape.org/namespaces/inkscape"
   id="svg2985"
   version="1.1"
   inkscape:version="0.48.4 r9939"
   width="314"
   height="228"
   sodipodi:docname="multinoisemodule_pcb.dxf">
  <metadata
     id="metadata2991">
    <rdf:RDF>
      <cc:Work
         rdf:about="">
        <dc:format>image/svg+xml</dc:format>
        <dc:type
           rdf:resource="http://purl.org/dc/dcmitype/StillImage" />
        <dc:title></dc:title>
      </cc:Work>
    </rdf:RDF>
  </metadata>
  <defs
     id="defs2989" />
  <sodipodi:namedview
     pagecolor="#ffffff"
     bordercolor="#666666"
     borderopacity="1"
     objecttolerance="10"
     gridtolerance="10"
     guidetolerance="10"
     inkscape:pageopacity="0"
     inkscape:pageshadow="2"
     inkscape:window-width="1228"
     inkscape:window-height="808"
     id="namedview2987"
     showgrid="false"
     inkscape:zoom="2.4397268"
     inkscape:cx="157"
     inkscape:cy="114"
     inkscape:window-x="0"
     inkscape:window-y="0"
     inkscape:window-maximized="0"
     inkscape:current-layer="svg2985" />
  <path
     style="fill:#000000"
     d="m 293.4062,210.82809 c 0.33384,-0.86998 0.60699,-2.91081 0.60699,-4.53518 0,-1.62437 0.6852,-3.99916 1.52268,-5.27731 2.62511,-4.00641 -1.3093,-8.86065 -5.40503,-6.66868 -2.74805,1.47071 -3.37531,4.02078 -1.64034,6.66868 0.83748,1.27815 1.52269,3.46475 1.52269,4.8591 0,2.48822 -0.13891,2.53518 -7.5,2.53518 -6.83334,0 -7.5,-0.17778 -7.5,-2 0,-1.1 0.43416,-2 0.96481,-2 1.48309,0 3.10276,-3.66033 2.41395,-5.45534 -0.82685,-2.15474 -3.86715,-3.67821 -5.8341,-2.92342 -2.89929,1.11256 -3.85959,4.24918 -2.11574,6.91063 3.53058,5.38834 3.26897,5.46813 -17.92892,5.46813 -18.83334,0 -19.5,-0.0684 -19.5,-2 0,-1.1 0.43416,-2 0.96481,-2 0.53065,0 1.44648,-0.9 2.03519,-2 2.02055,-3.77544 -2.19258,-8.03767 -5.9548,-6.02419 -2.67936,1.43395 -3.28749,4.00546 -1.56789,6.62991 3.51397,5.363 3.3954,5.39428 -20.44593,5.39428 -18.58617,0 -21.88455,-0.21905 -21.42268,-1.42268 0.56296,-1.46705 -2.83348,-5.57732 -4.6087,-5.57732 -1.77522,0 -5.17166,4.11027 -4.6087,5.57732 0.39572,1.03124 -0.26222,1.42268 -2.3913,1.42268 -2.12908,0 -2.78702,-0.39144 -2.3913,-1.42268 0.56296,-1.46705 -2.83348,-5.57732 -4.6087,-5.57732 -1.77522,0 -5.17166,4.11027 -4.6087,5.57732 0.46406,1.20934 -3.6481,1.42268 -27.42268,1.42268 -15.38274,0 -27.96862,-0.24083 -27.96862,-0.53518 0,-0.29435 0.68521,-1.58095 1.52269,-2.8591 2.6251,-4.00641 -1.30931,-8.86065 -5.40504,-6.66868 -2.74805,1.47071 -3.37531,4.02078 -1.64034,6.66868 0.83748,1.27815 1.52269,2.56475 1.52269,2.8591 0,0.29435 -19.35,0.53518 -43,0.53518 l -43,0 0,-7.32569 c 0,-6.52109 0.27458,-7.58363 2.5,-9.67431 2.67461,-2.51266 3.30694,-6.79306 1.3,-8.8 -0.93333,-0.93333 -0.93333,-1.46667 0,-2.4 1.52839,-1.52839 1.55372,-6.04628 0.0424,-7.55762 -0.87682,-0.87682 -0.84712,-1.53174 0.12245,-2.7 1.83235,-2.20784 18.12308,-2.18611 21.5033,0.0287 1.79652,1.17713 2.88657,1.30947 4.34716,0.52778 3.70169,-1.98108 3.73634,-6.19808 0.0671,-8.16181 -2.01611,-1.07899 -5.88235,0.30004 -5.88235,2.09814 0,0.5484 -3.89051,0.96482 -9.0141,0.96482 -8.8966,0 -9.05263,-0.0424 -11.97068,-3.25 -3.35384,-3.68667 -3.83548,-7.5685 -1.40021,-11.28518 1.49285,-2.27838 1.48592,-2.66184 -0.0916,-5.06951 -2.25954,-3.44833 -1.32486,-9.39532 1.47653,-9.39532 1.87903,0 2.42287,1.5152 3.23031,9 0.26956,2.49881 0.27494,2.5 11.26969,2.5 l 11,0 0.28527,-3 c 0.1569,-1.65 0.74947,-3.9266 1.31682,-5.05912 0.56736,-1.13252 0.88899,-4.05752 0.71473,-6.5 -0.28435,-3.98579 -0.57302,-4.44088 -2.81682,-4.44088 -2.48251,0 -2.49845,0.0577 -2.279,8.25 l 0.221,8.25 -8.471,0 c -8.17264,0 -8.471,-0.081 -8.471,-2.3 0,-1.265 0.47722,-2.77722 1.06049,-3.36049 0.58327,-0.58327 0.92077,-3.26077 0.75,-5.95 -0.2836,-4.46601 -0.52702,-4.88951 -2.81049,-4.88951 -1.83124,0 -2.58548,0.60188 -2.81955,2.25 -0.19663,1.38452 -1.01403,2.25 -2.125,2.25 -2.03654,0 -3.05545,-3.54315 -3.05545,-10.625 l 0,-4.375 7.0147,0 c 6.8548,0 7.05832,-0.0741 8.92836,-3.25 1.05252,-1.7875 2.64758,-3.98807 3.54458,-4.89017 1.16613,-1.17274 1.54277,-3.02514 1.32164,-6.5 -0.28222,-4.434674 -0.52799,-4.859824 -2.80928,-4.859824 -2.35174,0 -2.53383,0.38547 -3.07053,6.499994 -0.85334,9.72208 -1.08575,10 -8.36263,10 l -6.21919,0 -0.24138,-48.499997 -0.24139,-48.5 22.20289,0 22.20289,0 2.31692,2.5 c 2.89955,3.128671 3.92529,3.128671 6.82484,0 1.27431,-1.375 2.88872,-2.5 3.58758,-2.5 0.69886,0 2.31327,1.125 3.58758,2.5 1.27431,1.375 2.8099,2.5 3.41242,2.5 0.60252,0 2.13811,-1.125 3.41242,-2.5 l 2.31692,-2.5 26.13533,0 26.13533,0 0,25.27682 0,25.276819 -7,6.946361 c -5.82929,5.784621 -7,7.494391 -7,10.22318 l 0,3.276823 -5.53138,0 c -3.51075,0 -5.70105,0.45663 -5.99582,1.25 -0.25544,0.6875 -0.57881,5.3 -0.71861,10.249994 l -0.25419,9 2.5,0 c 2.28347,0 2.52689,-0.4235 2.81049,-4.88951 0.17077,-2.68923 -0.16673,-5.366734 -0.75,-5.949994 -0.58327,-0.58327 -1.06049,-2.29804 -1.06049,-3.81059 0,-2.6465 0.21659,-2.76139 5.75,-3.05 l 5.75,-0.2999 0.32464,-4 c 0.27601,-3.400933 1.36183,-5.069856 7.25,-11.143423 l 6.92536,-7.143421 0,-25.606579 0,-25.60658 3.5,0 c 3.33997,0 3.5,0.16164 3.5,3.535183 0,1.944351 -0.68521,4.580944 -1.52269,5.859095 -1.7196,2.624449 -1.11147,5.195963 1.5679,6.629916 3.76221,2.013477 7.97534,-2.248756 5.95479,-6.024194 -0.5887,-1.1 -1.50453,-2 -2.03518,-2 -0.53065,0 -0.96482,-1.8 -0.96482,-4 l 0,-4 12.5,0 12.5,0 0,8.535183 c 0,5.959217 -0.45956,9.236553 -1.52269,10.859095 -1.7196,2.624449 -1.11147,5.195963 1.5679,6.629916 3.76221,2.013477 7.97534,-2.248756 5.95479,-6.024194 -0.5887,-1.1 -1.50453,-2 -2.03518,-2 -0.54829,0 -0.96482,-3.885467 -0.96482,-9 l 0,-9 11.03518,0 c 8.47419,0 11.60721,0.374804 13.5,1.61501 2.26896,1.48668 2.66068,1.48668 4.92964,0 1.63377,-1.070489 4.66823,-1.61501 8.99999,-1.61501 l 6.53519,0 0,3.535183 c 0,1.944351 -0.68521,4.580944 -1.52269,5.859095 -1.7196,2.624449 -1.11147,5.195963 1.56789,6.629916 4.15262,2.222413 8.1614,-2.533737 5.52587,-6.556068 -0.86409,-1.318768 -1.57107,-3.988592 -1.57107,-5.932943 l 0,-3.535183 7,0 7,0 0,6.383369 c 0,5.623325 -0.24755,6.448104 -2.07911,6.927067 -1.49454,0.39083 -1.98658,1.196827 -1.75,2.866632 0.29881,2.109117 0.83536,2.322932 5.82911,2.322932 4.99375,0 5.53029,-0.213815 5.8291,-2.322932 0.23658,-1.669805 -0.25546,-2.475802 -1.75,-2.866632 -1.83434,-0.479693 -2.0791,-1.302908 -2.0791,-6.992809 0,-10.648495 0.59552,-10.317627 -18.57037,-10.317627 -13.50477,0 -16.94743,-0.293172 -18.96481,-1.61501 -2.26916,-1.48681 -2.6607,-1.486665 -4.93243,0.0018 -2.22891,1.460441 -11.45041,1.613479 -95.33249,1.582117 -51.07569,-0.0191 -93.61527,0.253226 -94.5324,0.605161 -1.517171,0.582194 -1.679651,4.439226 -1.802281,42.782893 -0.27236,85.158456 -0.28857,86.008566 -1.68629,88.460066 -1.11915,1.96289 -1.08094,2.68355 0.25,4.71481 2.284801,3.48705 1.9303,7.25249 -1.01197,10.74919 -1.9329497,2.29718 -2.4200897,3.71774 -1.9355597,5.64436 0.35611,1.41602 0.6041997,3.36208 0.5512897,4.32458 -0.0529,0.9625 -0.0962,3.1 -0.0962,4.75 0,1.65 0.0433,3.7875 0.0962,4.75 0.0529,0.9625 -0.1951797,2.90856 -0.5512897,4.32458 -0.48453,1.92662 0.003,3.34718 1.9355597,5.64436 2.36352,2.80892 2.58304,3.84365 2.58304,12.17545 l 0,9.10564 139.393011,0 c 126.1857,0 139.45052,-0.14987 140,-1.58179 z m -112.39301,-4.41821 c 0,-0.55 0.45,-1 1,-1 0.55,0 1,0.45 1,1 0,0.55 -0.45,1 -1,1 -0.55,0 -1,-0.45 -1,-1 z m -14,0 c 0,-0.55 0.45,-1 1,-1 0.55,0 1,0.45 1,1 0,0.55 -0.45,1 -1,1 -0.55,0 -1,-0.45 -1,-1 z m -62,-4 c 0,-0.55 0.45,-1 1,-1 0.55,0 1,0.45 1,1 0,0.55 -0.45,1 -1,1 -0.55,0 -1,-0.45 -1,-1 z m 168,-2 c 0,-0.55 0.45,-1 1,-1 0.55,0 1,0.45 1,1 0,0.55 -0.45,1 -1,1 -0.55,0 -1,-0.45 -1,-1 z m -42,0 c 0,-0.55 0.45,-1 1,-1 0.55,0 1,0.45 1,1 0,0.55 -0.45,1 -1,1 -0.55,0 -1,-0.45 -1,-1 z m 60,-2 c 0,-0.55 0.45,-1 1,-1 0.55,0 1,0.45 1,1 0,0.55 -0.45,1 -1,1 -0.55,0 -1,-0.45 -1,-1 z m -276,-12 c 0,-0.55 0.45,-1 1,-1 0.55,0 1,0.45 1,1 0,0.55 -0.45,1 -1,1 -0.55,0 -1,-0.45 -1,-1 z m 0,-10 c 0,-0.55 0.45,-1 1,-1 0.55,0 1,0.45 1,1 0,0.55 -0.45,1 -1,1 -0.55,0 -1,-0.45 -1,-1 z m 30,-10 c 0,-0.55 0.45,-1 1,-1 0.55,0 1,0.45 1,1 0,0.55 -0.45,1 -1,1 -0.55,0 -1,-0.45 -1,-1 z m -30,0 c 0,-0.55 0.45,-1 1,-1 0.55,0 1,0.45 1,1 0,0.55 -0.45,1 -1,1 -0.55,0 -1,-0.45 -1,-1 z m 0,-18 c 0,-0.55 0.45,-1 1,-1 0.55,0 1,0.45 1,1 0,0.55 -0.45,1 -1,1 -0.55,0 -1,-0.45 -1,-1 z m 30,-14 c 0,-0.55 0.45,-1 1,-1 0.55,0 1,0.45 1,1 0,0.55 -0.45,1 -1,1 -0.55,0 -1,-0.45 -1,-1 z m -20,0 c 0,-0.55 0.45,-1 1,-1 0.55,0 1,0.45 1,1 0,0.55 -0.45,1 -1,1 -0.55,0 -1,-0.45 -1,-1 z m -10,0 c 0,-0.55 0.45,-1 1,-1 0.55,0 1,0.45 1,1 0,0.55 -0.45,1 -1,1 -0.55,0 -1,-0.45 -1,-1 z m 100,-30 c 0,-0.55 0.45,-1 1,-1 0.55,0 1,0.45 1,1 0,0.55 -0.45,1 -1,1 -0.55,0 -1,-0.45 -1,-1 z m -80,0 c 0,-0.55 0.45,-1 1,-1 0.55,0 1,0.45 1,1 0,0.55 -0.45,1 -1,1 -0.55,0 -1,-0.45 -1,-1 z m -20,0 c 0,-0.55 0.45,-1 1,-1 0.55,0 1,0.45 1,1 0,0.55 -0.45,1 -1,1 -0.55,0 -1,-0.45 -1,-1 z m 164,-63.999997 c 0,-0.55 0.45,-1 1,-1 0.55,0 1,0.45 1,1 0,0.55 -0.45,1 -1,1 -0.55,0 -1,-0.45 -1,-1 z m 66,-6 c 0,-0.55 0.45,-1 1,-1 0.55,0 1,0.45 1,1 0,0.55 -0.45,1 -1,1 -0.55,0 -1,-0.45 -1,-1 z m -18,-4 c 0,-0.55 0.45,-1 1,-1 0.55,0 1,0.45 1,1 0,0.55 -0.45,1 -1,1 -0.55,0 -1,-0.45 -1,-1 z m -76,0 c 0,-0.55 0.45,-1 1,-1 0.55,0 1,0.45 1,1 0,0.55 -0.45,1 -1,1 -0.55,0 -1,-0.45 -1,-1 z m -70,-12 c 0,-0.55 0.45,-1 1,-1 0.55,0 1,0.45 1,1 0,0.55 -0.45,1 -1,1 -0.55,0 -1,-0.45 -1,-1 z m -14,0 c 0,-0.55 0.45,-1 1,-1 0.55,0 1,0.45 1,1 0,0.55 -0.45,1 -1,1 -0.55,0 -1,-0.45 -1,-1 z m 140,-2 c 0,-0.55 0.45,-1 1,-1 0.55,0 1,0.45 1,1 0,0.55 -0.45,1 -1,1 -0.55,0 -1,-0.45 -1,-1 z M 28.44176,204.83845 c 1.97542,-1.97541 1.97375,-2.88339 -0.009,-4.86607 -0.86919,-0.8692 -1.42281,-2.053 -1.23025,-2.63068 0.19256,-0.57768 1.88736,1.00134 3.76622,3.50893 3.13193,4.1799 3.77513,4.55925 7.73031,4.55925 l 4.31415,0 0.10876,-8.25 0.10877,-8.25 1.65422,7.92099 c 0.90982,4.35655 2.13098,8.07992 2.71369,8.27416 0.61002,0.20334 1.68243,-2.9449 2.5279,-7.421 l 1.46842,-7.77415 1.46597,7.41895 c 0.80628,4.08042 1.9591,7.58333 2.56181,7.78423 0.66117,0.22039 1.60541,-2.61372 2.38054,-7.14517 0.95498,-5.58286 1.73904,-7.65465 3.05493,-8.0723 3.24203,-1.02898 3.49745,-5.67984 0.37767,-6.87701 -3.27995,-1.25863 -6.16968,2.03698 -4.57162,5.21374 0.48488,0.96387 0.3614,3.80473 -0.29023,6.67756 l -1.13412,5 -1.36067,-7.78423 c -0.82188,-4.70189 -1.79459,-7.63959 -2.4565,-7.41895 -0.60271,0.2009 -1.74951,3.70381 -2.54844,7.78423 l -1.45259,7.41895 -1.58261,-8 c -1.1195,-5.659 -2.01325,-8 -3.05426,-8 -1.17533,0 -1.52927,1.96315 -1.75785,9.75 l -0.28621,9.75 -2.71379,-3e-5 c -1.89483,-2e-5 -3.54367,-1.04011 -5.46379,-3.44657 -1.5125,-1.8956 -2.75,-3.69559 -2.75,-3.99997 0,-0.30439 1.59746,-0.55343 3.5499,-0.55343 l 3.54991,0 -0.29991,-5.75 -0.2999,-5.75 -5.5,0 -5.5,0 -0.29618,7.36761 c -0.19187,4.77278 -0.80821,7.87964 -1.75,8.82143 -0.7996,0.7996 -1.45382,1.83953 -1.45382,2.31096 0,1.11089 2.88911,4 4,4 0.47143,0 1.56429,-0.70714 2.42857,-1.57143 z m -3.42857,-2.42857 c 0,-0.55 0.45,-1 1,-1 0.55,0 1,0.45 1,1 0,0.55 -0.45,1 -1,1 -0.55,0 -1,-0.45 -1,-1 z m 2,-13 c 0,-4 0,-4 4,-4 4,0 4,0 4,4 0,4 0,4 -4,4 -4,0 -4,0 -4,-4 z m 32,-3 c 0,-0.55 0.45,-1 1,-1 0.55,0 1,0.45 1,1 0,0.55 -0.45,1 -1,1 -0.55,0 -1,-0.45 -1,-1 z m 204,17 c 1.1,-1.1 2,-2.45 2,-3 0,-0.55 -0.9,-1.9 -2,-3 -1.1,-1.1 -2,-3.2406 -2,-4.75689 0,-2.456 1.28242,-3.52014 11.75,-9.75 l 11.75,-6.99311 0.52954,-12.5 c 0.29125,-6.875 0.88854,-13.25271 1.32732,-14.17268 0.54246,-1.13737 0.13296,-2.33749 -1.27954,-3.75 -2.58601,-2.58601 -3.55629,-2.59835 -6.07732,-0.0773 -2.60129,2.60128 -2.52254,3.61123 0.5,6.41242 2.34204,2.17053 2.5,2.94195 2.5,12.20914 l 0,9.89222 -11.75,6.99311 c -11.56901,6.88539 -11.75495,7.05369 -12.07126,10.9258 -0.17669,2.16298 -0.96419,4.85061 -1.75,5.97251 -0.78581,1.12189 -1.42874,2.38968 -1.42874,2.81731 0,1.12566 3.8219,4.77749 5,4.77749 0.55,0 1.9,-0.9 3,-2 z m -4,-3 c 0,-0.55 0.45,-1 1,-1 0.55,0 1,0.45 1,1 0,0.55 -0.45,1 -1,1 -0.55,0 -1,-0.45 -1,-1 z m 22,-52 c 0,-0.55 0.45,-1 1,-1 0.55,0 1,0.45 1,1 0,0.55 -0.45,1 -1,1 -0.55,0 -1,-0.45 -1,-1 z m -32,55 c 1.1,-1.1 2,-2.45 2,-3 0,-0.55 -0.9,-1.9 -2,-3 -1.43893,-1.43892 -1.99977,-3.33255 -1.99918,-6.75 l 8.2e-4,-4.75 6.74918,-4 6.74918,-4 0.29899,-6.29899 c 0.21986,-4.63198 0.81531,-6.81532 2.25,-8.25 1.07305,-1.07306 1.95101,-2.315 1.95101,-2.75988 0,-1.87804 -2.87714,-4.51608 -5.10075,-4.67684 -2.25137,-0.16278 -2.41779,-0.59823 -2.69998,-7.06484 -0.1654,-3.79025 0.20217,-7.83104 0.81682,-8.97953 0.61466,-1.14849 0.97498,-4.08656 0.80073,-6.52904 -0.28436,-3.98579 -0.57302,-4.44088 -2.81682,-4.44088 l -2.5,0 0.36289,13.5 c 0.19959,7.425 0.80083,14.04279 1.33609,14.7062 0.53526,0.6634 0.67067,1.69569 0.30091,2.29397 -0.36976,0.59828 0.0415,2.17716 0.91391,3.50862 0.94633,1.44429 1.5862,4.56779 1.5862,7.74303 l 0,5.32219 -6.45571,3.713 -6.4557,3.71299 -14.0443,0 -14.04429,0 0,-21.3 c 0,-13.67662 0.37955,-21.67955 1.06049,-22.36049 0.58326,-0.58327 0.92076,-3.26077 0.75,-5.95 -0.2836,-4.46601 -0.52703,-4.88951 -2.81049,-4.88951 l -2.5,0 0.36019,33.25 0.36019,33.25 -38.61019,0 -38.61019,0 0,-27.3 c 0,-17.90477 0.36496,-27.66496 1.06049,-28.36049 0.58327,-0.58327 0.92077,-3.26077 0.75,-5.95 -0.2836,-4.46601 -0.52702,-4.88951 -2.81049,-4.88951 l -2.5,0 0.34132,34 c 0.18773,18.7 0.66541,34.34268 1.06151,34.76151 0.3961,0.41883 18.91751,0.64383 41.15868,0.5 l 40.43849,-0.26151 0.2999,-5.75 0.2999,-5.75 13.4501,0 13.4501,0 -0.0318,4.75 c -0.0175,2.6125 -0.6925,5.62351 -1.5,6.69113 -0.80752,1.06762 -1.4682,2.30512 -1.4682,2.75 0,1.14972 3.80458,4.80887 5,4.80887 0.55,0 1.9,-0.9 3,-2 z m -4,-3 c 0,-0.55 0.45,-1 1,-1 0.55,0 1,0.45 1,1 0,0.55 -0.45,1 -1,1 -0.55,0 -1,-0.45 -1,-1 z m 14,-40 c 0,-0.55 0.45,-1 1,-1 0.55,0 1,0.45 1,1 0,0.55 -0.45,1 -1,1 -0.55,0 -1,-0.45 -1,-1 z m -4,-26 c 0,-0.55 0.45,-1 1,-1 0.55,0 1,0.45 1,1 0,0.55 -0.45,1 -1,1 -0.55,0 -1,-0.45 -1,-1 z m -40,0 c 0,-0.55 0.45,-1 1,-1 0.55,0 1,0.45 1,1 0,0.55 -0.45,1 -1,1 -0.55,0 -1,-0.45 -1,-1 z m -80,0 c 0,-0.55 0.45,-1 1,-1 0.55,0 1,0.45 1,1 0,0.55 -0.45,1 -1,1 -0.55,0 -1,-0.45 -1,-1 z m -35.7428,63.07904 c 2.95661,-2.59594 4.28551,-3.0183 10.31825,-3.27937 l 6.92455,-0.29967 0.29569,-6.75 c 0.16263,-3.7125 0.7093,-6.75 1.21482,-6.75 0.50552,0 1.40079,-0.9 1.98949,-2 2.02055,-3.77544 -2.19258,-8.03767 -5.95479,-6.02419 -2.67937,1.43395 -3.2875,4.00546 -1.5679,6.62991 0.85429,1.3038 1.52269,4.53417 1.52269,7.3591 l 0,5.03518 -6.31291,0 c -5.70897,0 -6.58787,0.287 -9.18709,3 -2.86189,2.98717 -2.92257,3 -14.18709,3 l -11.31291,0 0,-7.34501 c 0,-8.33121 0.12837,-8.14499 -9.75,-14.14383 l -6.25,-3.79543 0,-9.35787 c 0,-8.02453 0.28497,-9.64283 2,-11.35786 1.1,-1.1 2,-2.45 2,-3 0,-0.55 -0.9,-1.9 -2,-3 -2.22637,-2.22637 -2.53203,-4.06797 -0.93951,-5.66049 0.58327,-0.58327 0.92077,-3.26077 0.75,-5.95 -0.2836,-4.46601 -0.52702,-4.88951 -2.81049,-4.88951 -2.44444,0 -2.5,0.16667 -2.5,7.5 0,4.37925 -0.5497,8.46413 -1.32107,9.81706 -1.11915,1.96289 -1.08094,2.68355 0.25,4.71481 1.1603,1.77084 1.57107,4.98104 1.57107,12.27796 0,11.2 -0.39868,10.51626 9.71147,16.65523 l 6.21147,3.77165 0.28853,8.13164 0.28853,8.13165 12.68176,0.27937 12.68175,0.27936 3.39369,-2.97969 z m 15.7428,-21.07904 c 0,-0.55 0.45,-1 1,-1 0.55,0 1,0.45 1,1 0,0.55 -0.45,1 -1,1 -0.55,0 -1,-0.45 -1,-1 z m -60,-28 c 0,-0.55 0.45,-1 1,-1 0.55,0 1,0.45 1,1 0,0.55 -0.45,1 -1,1 -0.55,0 -1,-0.45 -1,-1 z m 0,-14 c 0,-0.55 0.45,-1 1,-1 0.55,0 1,0.45 1,1 0,0.55 -0.45,1 -1,1 -0.55,0 -1,-0.45 -1,-1 z m 33.47088,57.03218 c 1.33984,-1.48051 2.22703,-1.72904 3.58254,-1.00359 2.21741,1.18672 4.68436,0.32989 5.97077,-2.0738 1.97166,-3.68406 -2.23736,-7.98144 -5.89832,-6.02215 -1.44443,0.77303 -2.28246,0.55181 -3.65499,-0.96482 -2.56397,-2.83315 -6.88636,-2.52637 -9.3983,0.66704 -1.13992,1.44917 -2.07258,3.41348 -2.07258,4.36514 0,0.95166 0.93266,2.91597 2.07258,4.36514 2.51194,3.19341 6.83433,3.50019 9.3983,0.66704 z m 4.52912,-5.03218 c 0,-0.55 0.45,-1 1,-1 0.55,0 1,0.45 1,1 0,0.55 -0.45,1 -1,1 -0.55,0 -1,-0.45 -1,-1 z m -10,0 c 0,-0.55 0.45,-1 1,-1 0.55,0 1,0.45 1,1 0,0.55 -0.45,1 -1,1 -0.55,0 -1,-0.45 -1,-1 z m 126,3 c 1.1,-1.1 2,-2.45 2,-3 0,-1.29694 -3.70306,-5 -5,-5 -0.55,0 -1.9,0.9 -3,2 -1.83333,1.83333 -3.33333,2 -18,2 l -16,0 0,-5 c 0,-3.45711 0.54823,-5.54823 1.77662,-6.77662 2.5105,-2.5105 2.27336,-12.98245 -0.33721,-14.89134 -1.00192,-0.73262 -2.09965,-1.33204 -2.43941,-1.33204 -0.33976,0 -1.43749,0.59942 -2.43941,1.33204 -2.21576,1.6202 -2.83169,11.9538 -0.8664,14.53589 0.68321,0.89764 1.25651,3.99457 1.27401,6.88207 l 0.0318,5.25 -9.5,0 -9.5,0 0,-22.3 c 0,-14.38131 0.37658,-22.67658 1.06049,-23.36049 0.58327,-0.58327 0.92077,-3.26077 0.75,-5.95 -0.2836,-4.46601 -0.52702,-4.88951 -2.81049,-4.88951 l -2.5,0 0.36122,29 c 0.19867,15.95 0.56273,29.3375 0.80902,29.75 0.24629,0.4125 13.13374,0.76431 28.63878,0.7818 23.20327,0.0262 28.53442,0.29157 30.13211,1.5 2.53601,1.91815 3.16953,1.85754 5.55887,-0.5318 z m -4,-3 c 0,-0.55 0.45,-1 1,-1 0.55,0 1,0.45 1,1 0,0.55 -0.45,1 -1,1 -0.55,0 -1,-0.45 -1,-1 z m -38,-16 c 0,-0.55 0.45,-1 1,-1 0.55,0 1,0.45 1,1 0,0.55 -0.45,1 -1,1 -0.55,0 -1,-0.45 -1,-1 z m 0,-8 c 0,-0.55 0.45,-1 1,-1 0.55,0 1,0.45 1,1 0,0.55 -0.45,1 -1,1 -0.55,0 -1,-0.45 -1,-1 z m -22,-28 c 0,-0.55 0.45,-1 1,-1 0.55,0 1,0.45 1,1 0,0.55 -0.45,1 -1,1 -0.55,0 -1,-0.45 -1,-1 z m 150,53 c 1.1,-1.1 2,-2.45 2,-3 0,-0.55 -0.9,-1.9 -2,-3 -3.04418,-3.04417 -2.63741,-6 0.82568,-6 5.24442,0 9.35089,-7.42343 5.97432,-10.8 -0.93334,-0.93333 -0.93334,-1.46667 0,-2.4 3.41943,-3.41943 -0.75911,-10.8 -6.11445,-10.8 l -2.68555,0 0,-9.42327 c 0,-8.59885 -0.21928,-9.68387 -2.50629,-12.40183 -1.40831,-1.67368 -2.25062,-3.64483 -1.92268,-4.49941 0.59319,-1.54583 -2.73283,-5.67549 -4.57103,-5.67549 -0.55,0 -1.93937,0.93937 -3.08748,2.08748 -1.8235,1.8235 -2.80354,2.00013 -7.75,1.39676 -3.11439,-0.37989 -22.98652,-0.75675 -44.1603,-0.83747 l -38.49777,-0.14677 -2.00222,3.7473 c -1.97888,3.70359 -2.07369,3.74733 -8.12979,3.75 -6.91532,0.003 -8.98567,-1.41785 -7.96888,-5.46908 0.44419,-1.76978 0.0395,-3.08511 -1.38833,-4.51299 -2.5221,-2.5221 -3.50587,-2.52459 -6.01523,-0.0152 -1.85988,1.85988 -3.33333,2 -21.03138,2 -15.22981,0 -19.13684,0.27479 -19.55928,1.37566 -0.29034,0.75662 -0.61372,4.91912 -0.71862,9.25 -0.18852,7.78349 -0.16188,7.87434 2.30928,7.87434 2.28347,0 2.52689,-0.4235 2.81049,-4.88951 0.17077,-2.68923 -0.16673,-5.36673 -0.75,-5.95 -0.58327,-0.5833 -1.06049,-1.87052 -1.06049,-2.86052 0,-1.6668 1.33464,-1.8 18.03518,-1.8 19.31932,0 19.9015,0.12794 26.06835,5.72891 2.32444,2.11113 3.39643,2.33281 10,2.06786 l 7.39647,-0.29677 2,-3.7473 2,-3.7473 15.68309,-0.003 15.68309,-0.003 -0.18309,7.75 c -0.1807,7.64882 -0.15046,7.75 2.31691,7.75 2.28346,0 2.52689,-0.4235 2.81049,-4.88951 0.17076,-2.68923 -0.16674,-5.36673 -0.75,-5.95 -0.58327,-0.58267 -1.06049,-1.88796 -1.06049,-2.90004 0,-1.74056 1.06889,-1.81481 19.75,-1.37188 23.8146,0.56464 31.88559,1.32716 34.89099,3.29637 1.24908,0.81843 2.67543,1.23813 3.16967,0.93268 0.49424,-0.30546 1.8588,0.46669 3.03236,1.71588 2.0623,2.19522 2.12891,3.05633 1.98957,25.71918 -0.10943,17.79686 -0.46813,23.9233 -1.48838,25.42043 -0.73932,1.08487 -1.34421,2.32237 -1.34421,2.75 0,1.12566 3.8219,4.77749 5,4.77749 0.55,0 1.9,-0.9 3,-2 z m -4,-3 c 0,-0.55 0.45,-1 1,-1 0.55,0 1,0.45 1,1 0,0.55 -0.45,1 -1,1 -0.55,0 -1,-0.45 -1,-1 z m 4,-16 c 0,-0.55 0.45,-1 1,-1 0.55,0 1,0.45 1,1 0,0.55 -0.45,1 -1,1 -0.55,0 -1,-0.45 -1,-1 z m 0,-10 c 0,-0.55 0.45,-1 1,-1 0.55,0 1,0.45 1,1 0,0.55 -0.45,1 -1,1 -0.55,0 -1,-0.45 -1,-1 z m -70,-24 c 0,-0.55 0.45,-1 1,-1 0.55,0 1,0.45 1,1 0,0.55 -0.45,1 -1,1 -0.55,0 -1,-0.45 -1,-1 z m -100,0 c 0,-0.55 0.45,-1 1,-1 0.55,0 1,0.45 1,1 0,0.55 -0.45,1 -1,1 -0.55,0 -1,-0.45 -1,-1 z m 158,-10 c 0,-0.55 0.45,-1 1,-1 0.55,0 1,0.45 1,1 0,0.55 -0.45,1 -1,1 -0.55,0 -1,-0.45 -1,-1 z m -116,-2 c 0,-0.55 0.45,-1 1,-1 0.55,0 1,0.45 1,1 0,0.55 -0.45,1 -1,1 -0.55,0 -1,-0.45 -1,-1 z m -8,57 c 1.1,-1.1 2,-2.45 2,-3 0,-0.55 -0.9,-1.9 -2,-3 -2.56949,-2.56949 -2.54183,-5.45817 0.0773,-8.07732 1.14252,-1.14252 1.85251,-2.66316 1.57774,-3.37919 -0.27476,-0.71602 0.93634,-2.6936 2.69134,-4.39462 l 3.19092,-3.09275 14.98134,-0.27806 14.98136,-0.27806 0.26687,-6 c 0.14677,-3.3 0.73934,-6.9266 1.31682,-8.05912 0.57748,-1.13252 0.90739,-4.05752 0.73313,-6.5 -0.28435,-3.98579 -0.57302,-4.44088 -2.81682,-4.44088 l -2.5,0 0.33971,11.25 0.33971,11.25 -14.39354,0 -14.39355,0 -3.41473,3.52312 c -1.87811,1.93771 -3.99139,3.30183 -4.69617,3.03138 -1.8804,-0.72158 -4.19098,0.40798 -5.38028,2.63021 -0.78169,1.46059 -0.64935,2.55064 0.52778,4.34716 1.94904,2.97461 1.96398,6.36456 0.0393,8.90926 -0.80751,1.06762 -1.4682,2.30512 -1.4682,2.75 0,1.14972 3.80458,4.80887 5,4.80887 0.55,0 1.9,-0.9 3,-2 z m -4,-3 c 0,-0.55 0.45,-1 1,-1 0.55,0 1,0.45 1,1 0,0.55 -0.45,1 -1,1 -0.55,0 -1,-0.45 -1,-1 z m 0,-14 c 0,-0.55 0.45,-1 1,-1 0.55,0 1,0.45 1,1 0,0.55 -0.45,1 -1,1 -0.55,0 -1,-0.45 -1,-1 z m 40,-28 c 0,-0.55 0.45,-1 1,-1 0.55,0 1,0.45 1,1 0,0.55 -0.45,1 -1,1 -0.55,0 -1,-0.45 -1,-1 z m 14,39 c 1.1,-1.1 2,-2.45 2,-3 0,-0.55 -0.9,-1.9 -2,-3 -1.7832,-1.7832 -2,-3.33333 -2,-14.3 0,-7.33438 0.42813,-12.72813 1.06049,-13.36049 0.58327,-0.58327 0.92077,-3.26077 0.75,-5.95 -0.2836,-4.46601 -0.52702,-4.88951 -2.81049,-4.88951 l -2.5,0 0.37942,18.05633 c 0.47958,22.82269 0.65271,22.44367 -10.25164,22.44367 l -7.89112,0 0.54777,-4.0839 c 0.42716,-3.18474 0.12589,-4.50578 -1.36833,-6 -2.37034,-2.37034 -3.43202,-2.40018 -5.67274,-0.15946 -1.53607,1.53607 -2.10105,7.24505 -1.33185,13.45818 0.0487,0.39315 1.01867,1.21263 2.15555,1.82107 1.60469,0.8588 2.6034,0.75483 4.46481,-0.46482 3.19318,-2.09225 16.15937,-2.11918 18.90926,-0.0393 2.53601,1.91818 3.16953,1.85757 5.55887,-0.53177 z m -4,-3 c 0,-0.55 0.45,-1 1,-1 0.55,0 1,0.45 1,1 0,0.55 -0.45,1 -1,1 -0.55,0 -1,-0.45 -1,-1 z m -24,0 c 0,-0.55 0.45,-1 1,-1 0.55,0 1,0.45 1,1 0,0.55 -0.45,1 -1,1 -0.55,0 -1,-0.45 -1,-1 z m 0,-8 c 0,-0.55 0.45,-1 1,-1 0.55,0 1,0.45 1,1 0,0.55 -0.45,1 -1,1 -0.55,0 -1,-0.45 -1,-1 z m 24,-28 c 0,-0.55 0.45,-1 1,-1 0.55,0 1,0.45 1,1 0,0.55 -0.45,1 -1,1 -0.55,0 -1,-0.45 -1,-1 z M 82.83888,171.09543 c 2.25069,-2.39575 2.92599,-7.10295 1.17431,-8.18555 -0.55,-0.33992 -1,-1.91492 -1,-3.5 0,-1.58508 0.45,-3.16008 1,-3.5 1.35453,-0.83715 1.26953,-5.83047 -0.12296,-7.22296 -0.8306,-0.8306 -0.57026,-1.89913 1,-4.10437 1.87048,-2.62684 2.12296,-4.36046 2.12296,-14.57704 l 0,-11.59563 36.36514,0 c 34.85095,0 36.47101,-0.0833 38.90773,-2 1.59486,-1.25452 4.05678,-2 6.60492,-2 3.35301,0 4.44913,0.52317 6.27753,2.99621 1.21836,1.64792 2.28657,3.96508 2.37381,5.14926 0.14905,2.02311 2.86817,4.85453 4.662,4.85453 1.58148,0 4.955,-4.17681 4.44563,-5.50421 -0.28483,-0.74226 0.0516,-1.82218 0.74759,-2.39981 0.81467,-0.67612 15.31009,-1.21808 40.69056,-1.52137 21.6838,-0.25912 45.50009,-0.83191 52.92509,-1.27287 l 13.5,-0.80174 0,-32.996764 0,-32.996768 -6.75,-4.973568 -6.75,-4.973568 0,-6.779665 c 0,-3.728815 0.43416,-6.779664 0.96481,-6.779664 1.48309,0 3.10276,-3.660331 2.41395,-5.455338 -0.82685,-2.154742 -3.86715,-3.678216 -5.8341,-2.923427 -2.89929,1.112563 -3.85959,4.249184 -2.11574,6.910639 1.05283,1.606821 1.57108,4.723538 1.57108,9.448443 l 0,7.050683 7,5.10737 7,5.10737 0,30.819977 0,30.81997 -12.75,0.57983 c -7.0125,0.31891 -21.6375,0.8127 -32.5,1.09731 l -19.75,0.51747 0,-2.34015 c 0,-1.28708 0.47722,-2.81737 1.06049,-3.40064 0.58326,-0.58327 0.92076,-3.26077 0.75,-5.95 -0.2836,-4.466014 -0.52703,-4.889504 -2.81049,-4.889504 -2.48251,0 -2.49846,0.0577 -2.279,8.249994 l 0.221,8.25 -18.271,0 c -13.28365,0 -18.61211,0.34121 -19.52066,1.25 -2.36655,2.36719 -6.39966,1.53563 -9.46065,-1.95064 -2.58519,-2.94437 -3.46082,-3.29936 -8.13829,-3.29936 -3.97143,0 -5.67998,0.4846 -7.0514,2 -1.66934,1.8446 -3.07997,2 -18.15499,2 l -16.34501,0 0,-2.3 c 0,-1.265 0.47722,-2.77722 1.06049,-3.36049 0.58327,-0.58327 0.92077,-3.26077 0.75,-5.95 -0.2836,-4.466014 -0.52702,-4.889504 -2.81049,-4.889504 -2.48251,0 -2.49845,0.0577 -2.279,8.249994 l 0.221,8.25 -20.94795,0 -20.94794,0 -1.70089,-2.59587 c -1.16955,-1.78497 -1.62414,-4.25251 -1.45522,-7.89907 0.13677,-2.9526 -0.22765,-5.595704 -0.82217,-5.963144 -1.5859,-0.98013 -1.29327,-4.54191 0.37315,-4.54191 0.79254,0 1.7191,0.45 2.05902,1 0.33992,0.55 2.60064,1 5.02383,1 3.33243,0 4.658,-0.47124 5.44099,-1.93426 1.33879,-2.50156 1.32284,-2.63523 -0.53625,-4.49431 -1.97104,-1.97104 -5.09427,-1.99423 -8.79288,-0.0653 -1.57537,0.82161 -3.68631,1.49384 -4.69098,1.49384 -2.51589,0 -2.73148,0.56732 -3.51926,9.260744 l -0.69256,7.64266 4.22667,5.04829 c 2.32467,2.77657 4.85977,5.0483 5.63356,5.0483 1.12418,0 1.40688,2.21742 1.40688,11.03518 0,12.68382 -1.24181,15.96482 -6.04243,15.96482 -3.7558,0 -7.35827,4.44195 -6.47002,7.97772 2.04608,8.14459 2.07888,8.02228 -2.15154,8.02228 -4.72263,0 -8.33601,2.32195 -8.33601,5.3567 0,3.46617 1.93707,4.6433 7.64098,4.6433 2.88254,0 5.5191,0.45 5.85902,1 1.13794,1.84123 6.09654,1.05837 8.32569,-1.31445 z m -5.82569,-4.68555 c 0,-0.55 0.45,-1 1,-1 0.55,0 1,0.45 1,1 0,0.55 -0.45,1 -1,1 -0.55,0 -1,-0.45 -1,-1 z m -12,0 c 0,-0.55 0.45,-1 1,-1 0.55,0 1,0.45 1,1 0,0.55 -0.45,1 -1,1 -0.55,0 -1,-0.45 -1,-1 z m 12,-14 c 0,-0.55 0.45,-1 1,-1 0.55,0 1,0.45 1,1 0,0.55 -0.45,1 -1,1 -0.55,0 -1,-0.45 -1,-1 z m 104,-30 c 0,-0.55 0.45,-1 1,-1 0.55,0 1,0.45 1,1 0,0.55 -0.45,1 -1,1 -0.55,0 -1,-0.45 -1,-1 z m 44,-18 c 0,-0.55 0.45,-1 1,-1 0.55,0 1,0.45 1,1 0,0.55 -0.45,1 -1,1 -0.55,0 -1,-0.45 -1,-1 z m -100,0 c 0,-0.55 0.45,-1 1,-1 0.55,0 1,0.45 1,1 0,0.55 -0.45,1 -1,1 -0.55,0 -1,-0.45 -1,-1 z m -50,0 c 0,-0.55 0.45,-1 1,-1 0.55,0 1,0.45 1,1 0,0.55 -0.45,1 -1,1 -0.55,0 -1,-0.45 -1,-1 z m 12,-11.999994 c 0,-0.55 0.45,-1 1,-1 0.55,0 1,0.45 1,1 0,0.55 -0.45,1 -1,1 -0.55,0 -1,-0.45 -1,-1 z m 192,-70.000003 c 0,-0.55 0.45,-1 1,-1 0.55,0 1,0.45 1,1 0,0.55 -0.45,1 -1,1 -0.55,0 -1,-0.45 -1,-1 z m -160,142.999997 c 1.1,-1.1 2,-2.45 2,-3 0,-0.55 -0.9,-1.9 -2,-3 -1.1,-1.1 -2,-2.9 -2,-4 0,-1.1 0.9,-2.9 2,-4 1.1,-1.1 2,-2.45 2,-3 0,-0.55 -0.9,-1.9 -2,-3 -2.22637,-2.22637 -2.53203,-4.06797 -0.93951,-5.66049 0.58327,-0.58327 0.92077,-3.26077 0.75,-5.95 -0.2836,-4.46601 -0.52702,-4.88951 -2.81049,-4.88951 -2.44444,0 -2.5,0.16667 -2.5,7.5 0,4.37925 -0.5497,8.46413 -1.32107,9.81706 -1.11915,1.96289 -1.08094,2.68355 0.25,4.71481 1.95997,2.9913 2.02323,6.84798 0.13799,8.41259 -1.12399,0.93283 -1.97224,0.83607 -3.93294,-0.44863 -4.11443,-2.69588 -8.91574,1.24066 -6.65817,5.45896 1.44373,2.69765 4.01058,3.28414 6.68992,1.52858 2.14827,-1.4076 2.60115,-1.40985 4.5816,-0.0227 2.83361,1.98475 3.34848,1.94352 5.75267,-0.46067 z m -4,-3 c 0,-0.55 0.45,-1 1,-1 0.55,0 1,0.45 1,1 0,0.55 -0.45,1 -1,1 -0.55,0 -1,-0.45 -1,-1 z m -10,0 c 0,-0.55 0.45,-1 1,-1 0.55,0 1,0.45 1,1 0,0.55 -0.45,1 -1,1 -0.55,0 -1,-0.45 -1,-1 z m 10,-14 c 0,-0.55 0.45,-1 1,-1 0.55,0 1,0.45 1,1 0,0.55 -0.45,1 -1,1 -0.55,0 -1,-0.45 -1,-1 z m 0,-14 c 0,-0.55 0.45,-1 1,-1 0.55,0 1,0.45 1,1 0,0.55 -0.45,1 -1,1 -0.55,0 -1,-0.45 -1,-1 z m 162,29 c 3.08731,-3.08732 3.06698,-3.13339 -4.14792,-9.39792 -1.30415,-1.13236 -1.64548,-2.18824 -1.09102,-3.375 0.44379,-0.94989 0.75367,-4.1536 0.6886,-7.11934 -0.0879,-4.00597 -0.59566,-5.74133 -1.97511,-6.75 -2.42103,-1.77031 -3.11755,-1.71474 -5.25118,0.41888 -2.62121,2.62122 -2.26196,12.89899 0.52853,15.12022 2.6691,2.12461 4.37869,5.59926 3.66719,7.4534 -0.58421,1.52243 2.76229,5.64976 4.58091,5.64976 0.55,0 1.9,-0.9 3,-2 z m -4,-3 c 0,-0.55 0.45,-1 1,-1 0.55,0 1,0.45 1,1 0,0.55 -0.45,1 -1,1 -0.55,0 -1,-0.45 -1,-1 z m -6,-12 c 0,-0.55 0.45,-1 1,-1 0.55,0 1,0.45 1,1 0,0.55 -0.45,1 -1,1 -0.55,0 -1,-0.45 -1,-1 z m 0,-8 c 0,-0.55 0.45,-1 1,-1 0.55,0 1,0.45 1,1 0,0.55 -0.45,1 -1,1 -0.55,0 -1,-0.45 -1,-1 z m -18,23 c 1.1,-1.1 2,-2.45 2,-3 0,-0.55 -0.9,-1.9 -2,-3 -1.63471,-1.6347 -2,-3.33333 -2,-9.3 0,-4.015 0.47722,-7.77722 1.06049,-8.36049 0.58326,-0.58327 0.92076,-3.26077 0.75,-5.95 -0.2836,-4.46601 -0.52703,-4.88951 -2.81049,-4.88951 l -2.5,0 0.36751,12.84616 c 0.42146,14.73165 -0.41222,17.65384 -5.03649,17.65384 -1.55706,0 -2.83102,-0.43417 -2.83102,-0.96482 0,-0.53065 -0.9,-1.44648 -2,-2.03518 -3.77544,-2.02055 -8.03767,2.19258 -6.0242,5.95479 1.43396,2.67937 4.00547,3.2875 6.62992,1.5679 2.90588,-1.90401 6.31067,-1.9005 8.83541,0.009 2.53601,1.91826 3.16953,1.85765 5.55887,-0.53169 z m -4,-3 c 0,-0.55 0.45,-1 1,-1 0.55,0 1,0.45 1,1 0,0.55 -0.45,1 -1,1 -0.55,0 -1,-0.45 -1,-1 z m -14,0 c 0,-0.55 0.45,-1 1,-1 0.55,0 1,0.45 1,1 0,0.55 -0.45,1 -1,1 -0.55,0 -1,-0.45 -1,-1 z m 14,-26 c 0,-0.55 0.45,-1 1,-1 0.55,0 1,0.45 1,1 0,0.55 -0.45,1 -1,1 -0.55,0 -1,-0.45 -1,-1 z m -86,17 c 1.1,-1.1 2,-2.45 2,-3 0,-0.55 -0.9,-1.9 -2,-3 -2.22637,-2.22637 -2.53203,-4.06797 -0.93951,-5.66049 0.58327,-0.58327 0.92077,-3.26077 0.75,-5.95 -0.2836,-4.46601 -0.52702,-4.88951 -2.81049,-4.88951 -2.44444,0 -2.5,0.16667 -2.5,7.5 0,4.27569 -0.55251,8.46729 -1.28518,9.75 -1.45004,2.53861 -0.37332,5.59147 2.33919,6.63235 2.22389,0.85339 2.2041,0.85954 4.44599,-1.38235 z m -4,-3 c 0,-0.55 0.45,-1 1,-1 0.55,0 1,0.45 1,1 0,0.55 -0.45,1 -1,1 -0.55,0 -1,-0.45 -1,-1 z m 0,-14 c 0,-0.55 0.45,-1 1,-1 0.55,0 1,0.45 1,1 0,0.55 -0.45,1 -1,1 -0.55,0 -1,-0.45 -1,-1 z m 84.11846,15.63935 c 0.69138,-1.51742 0.82239,-3.5961 0.33501,-5.31561 -0.4402,-1.55306 -0.83481,-5.74874 -0.87692,-9.32374 -0.0736,-6.24625 -0.17415,-6.5 -2.57655,-6.5 -2.37655,0 -2.50549,0.29628 -2.61104,6 -0.0611,3.3 -0.42856,6.74018 -0.81664,7.64484 -0.38808,0.90466 -0.56311,3.37966 -0.38896,5.5 0.27642,3.36556 0.66481,3.89524 3.05818,4.17077 2.11666,0.24367 3.00034,-0.25238 3.87692,-2.17626 z m -4.11846,-1.63935 c 0,-0.55 0.45,-1 1,-1 0.55,0 1,0.45 1,1 0,0.55 -0.45,1 -1,1 -0.55,0 -1,-0.45 -1,-1 z m 0,-14 c 0,-0.55 0.45,-1 1,-1 0.55,0 1,0.45 1,1 0,0.55 -0.45,1 -1,1 -0.55,0 -1,-0.45 -1,-1 z m -139.23854,16.3339 c 2.28309,-0.91979 3.40431,-4.15565 2.21192,-6.38364 -0.81842,-1.52923 -0.76537,-2.79891 0.20893,-5 1.51196,-3.41576 4.33719,-3.8957 5.12813,-0.87115 0.39083,1.49453 1.19682,1.98657 2.86663,1.75 2.10911,-0.29882 2.32293,-0.83536 2.32293,-5.82911 0,-4.99375 -0.21382,-5.53029 -2.32293,-5.82911 -1.66981,-0.23657 -2.4758,0.25547 -2.86663,1.75 -0.29904,1.14351 -1.33873,2.07911 -2.31044,2.07911 -0.97171,0 -2.0114,-0.9356 -2.31044,-2.07911 -0.39083,-1.49453 -1.19682,-1.98657 -2.86663,-1.75 -2.08979,0.29608 -2.35351,0.92246 -2.62766,6.24096 -0.20527,3.98219 -0.93968,6.71906 -2.25,8.38486 -2.43143,3.09106 -2.42586,3.7227 0.0547,6.20329 2.05659,2.05659 2.59395,2.20713 4.76146,1.3339 z m -2.76146,-4.3339 c 0,-0.55 0.45,-1 1,-1 0.55,0 1,0.45 1,1 0,0.55 -0.45,1 -1,1 -0.55,0 -1,-0.45 -1,-1 z m 12,-12 c 0,-0.55 0.45,-1 1,-1 0.55,0 1,0.45 1,1 0,0.55 -0.45,1 -1,1 -0.55,0 -1,-0.45 -1,-1 z m -10,0 c 0,-0.55 0.45,-1 1,-1 0.55,0 1,0.45 1,1 0,0.55 -0.45,1 -1,1 -0.55,0 -1,-0.45 -1,-1 z m -16.70885,5.37552 c 0.38987,-0.38987 0.70885,-2.70331 0.70885,-5.14098 0,-3.50589 -0.5747,-5.00321 -2.75,-7.16486 -1.5125,-1.503 -3.97019,-4.83355 -5.46152,-7.40121 l -2.71153,-4.66847 -8.97109,0 c -10.37768,0 -10.40451,-0.0268 -10.53252,-10.5 -0.0698,-5.713774 -0.1926,-5.999994 -2.57334,-5.999994 -2.2624,0 -2.52845,0.43873 -2.79933,4.616304 -0.23523,3.62773 0.3145,5.66216 2.56705,9.5 l 2.86638,4.88369 9.04344,0.28568 9.04344,0.28568 2.88951,5.21432 c 1.80763,3.26199 3.07672,7.27361 3.38951,10.71432 0.41597,4.57567 0.84304,5.5491 2.54115,5.79218 1.12263,0.1607 2.36013,-0.0268 2.75,-0.41666 z m -3.29115,-5.37552 c 0,-0.55 0.45,-1 1,-1 0.55,0 1,0.45 1,1 0,0.55 -0.45,1 -1,1 -0.55,0 -1,-0.45 -1,-1 z m -30,-30 c 0,-0.55 0.45,-1 1,-1 0.55,0 1,0.45 1,1 0,0.55 -0.45,1 -1,1 -0.55,0 -1,-0.45 -1,-1 z m 23.29115,35.37552 c 1.3919,-1.3919 0.78082,-10.41067 -0.74506,-10.99621 -0.79966,-0.30685 -2.35948,-2.09273 -3.46628,-3.96861 l -2.01236,-3.4107 -10.30856,0 -10.30856,0 -4.27807,4.54613 c -3.94978,4.19727 -4.25483,4.9071 -3.97517,9.25 0.27497,4.27002 0.53349,4.70387 2.80291,4.70387 2.33872,0 2.53226,-0.39343 3,-6.09851 0.7261,-8.8562 1.452,-9.40149 12.51546,-9.40149 10.65315,0 10.48271,-0.14193 11.40846,9.5 0.48482,5.04952 0.89943,6.04629 2.61723,6.29218 1.12263,0.1607 2.36013,-0.0268 2.75,-0.41666 z m -3.29115,-5.37552 c 0,-0.55 0.45,-1 1,-1 0.55,0 1,0.45 1,1 0,0.55 -0.45,1 -1,1 -0.55,0 -1,-0.45 -1,-1 z m -30,0 c 0,-0.55 0.45,-1 1,-1 0.55,0 1,0.45 1,1 0,0.55 -0.45,1 -1,1 -0.55,0 -1,-0.45 -1,-1 z m 223.68956,-25.92089 c 0.6453,-2.46763 3.43457,-2.69911 6.70471,-0.55642 4.00642,2.6251 8.86066,-1.30931 6.66869,-5.40504 -1.47071,-2.748044 -4.02079,-3.375304 -6.66869,-1.64034 -3.41481,2.23748 -5.73361,1.85304 -7.14427,-1.184474 -1.64669,-3.54572 -1.59927,-3.94357 0.75,-6.29283 1.1,-1.1 2,-2.45 2,-3 0,-0.55 -0.9,-1.9 -2,-3 -1.54054,-1.540537 -2,-3.333336 -2,-7.803836 0,-5.316365 0.29297,-6.087792 3.48813,-9.184663 1.91847,-1.859456 4.46063,-3.452476 5.64925,-3.540044 2.02969,-0.149531 4.86262,-2.865924 4.86262,-4.66259 0,-1.149721 -3.80459,-4.80887 -5,-4.80887 -1.9261,0 -5.10691,4.087814 -4.54889,5.845987 0.3706,1.167655 -0.76873,3.034734 -3.44884,5.651796 -3.83688,3.746611 -4.00227,4.16979 -4.00227,10.240348 0,4.071839 -0.56082,7.188155 -1.57108,8.729992 -1.33093,2.03126 -1.36914,2.75192 -0.25,4.71482 0.77138,1.35293 1.32108,5.43781 1.32108,9.817054 0,7.08643 0.12809,7.51815 2.32293,7.82911 1.6698,0.23657 2.4758,-0.25547 2.86663,-1.75 z m 8.31044,-4.07911 c 0,-0.55 0.45,-1 1,-1 0.55,0 1,0.45 1,1 0,0.55 -0.45,1 -1,1 -0.55,0 -1,-0.45 -1,-1 z m -12,0 c 0,-0.55 0.45,-1 1,-1 0.55,0 1,0.45 1,1 0,0.55 -0.45,1 -1,1 -0.55,0 -1,-0.45 -1,-1 z m 0,-13.999994 c 0,-0.55 0.45,-1 1,-1 0.55,0 1,0.45 1,1 0,0.55 -0.45,1 -1,1 -0.55,0 -1,-0.45 -1,-1 z m 10,-28.000003 c 0,-0.55 0.45,-1 1,-1 0.55,0 1,0.45 1,1 0,0.55 -0.45,1 -1,1 -0.55,0 -1,-0.45 -1,-1 z M 248.30434,109.7854 c 1.0856,-1.08561 0.84226,-10.175024 -0.29115,-10.875514 -0.61372,-0.3793 -1,-8.4872 -1,-20.989469 0,-20.364581 7.5e-4,-20.37154 2.25,-20.690983 3.09337,-0.439329 3.74173,-4.747445 0.8291,-5.509115 -1.15418,-0.301825 -2.0791,-1.361391 -2.0791,-2.381754 0,-2.073907 2.77438,-2.779969 12.5,-3.18117 l 6,-0.247512 0.28621,-9.75 c 0.15742,-5.3625 0.70408,-9.75 1.21481,-9.75 1.45366,0 3.05835,-3.681699 2.37774,-5.455338 -0.82685,-2.154742 -3.86715,-3.678216 -5.8341,-2.923427 -2.89929,1.112563 -3.85959,4.249184 -2.11574,6.910639 1.09881,1.676994 1.57108,4.813133 1.57108,10.432943 l 0,8.035183 -5.8,0 c -3.19,0 -6.27722,-0.47722 -6.86049,-1.060489 -0.58327,-0.583269 -3.26077,-0.920769 -5.95,-0.75 -4.24541,0.269588 -4.93287,0.616494 -5.21862,2.633421 -0.23658,1.669805 0.25546,2.475802 1.75,2.866632 2.65281,0.693725 2.70816,3.912672 0.0791,4.600185 -2.75769,0.721152 -2.66849,4.722676 0.12153,5.452285 2.10588,0.550698 2.1188,0.747511 1.75,26.65638 -0.36518,25.654883 -0.3366,26.106583 1.66962,26.393763 1.12263,0.1607 2.36013,-0.0268 2.75,-0.41666 z m -3.29115,-5.37552 c 0,-0.55 0.45,-1 1,-1 0.55,0 1,0.45 1,1 0,0.55 -0.45,1 -1,1 -0.55,0 -1,-0.45 -1,-1 z m 0,-49.999997 c 0,-0.55 0.45,-1 1,-1 0.55,0 1,0.45 1,1 0,0.55 -0.45,1 -1,1 -0.55,0 -1,-0.45 -1,-1 z m 0,-10 c 0,-0.55 0.45,-1 1,-1 0.55,0 1,0.45 1,1 0,0.55 -0.45,1 -1,1 -0.55,0 -1,-0.45 -1,-1 z m 20,-22 c 0,-0.55 0.45,-1 1,-1 0.55,0 1,0.45 1,1 0,0.55 -0.45,1 -1,1 -0.55,0 -1,-0.45 -1,-1 z M 238.30434,109.7854 c 0.38986,-0.38987 0.70885,-3.24385 0.70885,-6.34219 0,-3.09832 0.47441,-6.107744 1.05425,-6.687584 0.57984,-0.57984 0.91734,-3.70566 0.75,-6.94626 -0.28822,-5.581514 -0.50188,-6.019617 -4.05425,-8.313293 -3.48197,-2.248214 -3.75,-2.766674 -3.75,-7.253732 0,-3.499125 -0.55183,-5.384282 -2,-6.832458 -2.40751,-2.40751 -2.91734,-2.446628 -5.7775,-0.443296 -1.89312,1.325997 -2.2225,2.481973 -2.2225,7.8 0,3.522564 0.52294,6.766238 1.2,7.443296 1.43102,1.431021 5.44028,1.591053 6.26895,0.25023 0.33414,-0.540641 2.08263,-0.06732 4.05902,1.098776 3.1903,1.882324 3.47203,2.435173 3.47203,6.813407 0,3.77799 -0.5298,5.29466 -2.558,7.32285 -2.15991,2.15992 -2.51006,3.309384 -2.25,7.386364 0.2536,3.97564 0.66848,4.87997 2.34915,5.12055 1.12263,0.1607 2.36013,-0.0268 2.75,-0.41666 z m -3.29115,-5.37552 c 0,-0.55 0.45,-1 1,-1 0.55,0 1,0.45 1,1 0,0.55 -0.45,1 -1,1 -0.55,0 -1,-0.45 -1,-1 z m -8,-25.999997 c 0,-0.55 0.45,-1 1,-1 0.55,0 1,0.45 1,1 0,0.55 -0.45,1 -1,1 -0.55,0 -1,-0.45 -1,-1 z m 0,-8 c 0,-0.55 0.45,-1 1,-1 0.55,0 1,0.45 1,1 0,0.55 -0.45,1 -1,1 -0.55,0 -1,-0.45 -1,-1 z m -8.70885,39.375517 c 1.0856,-1.08561 0.84226,-10.175024 -0.29115,-10.875514 -0.55,-0.33992 -1,-1.95153 -1,-3.58136 0,-2.0673 -1.20949,-4.27547 -4,-7.30282 -3.46799,-3.762323 -4,-4.956371 -4,-8.977654 0,-2.550993 0.43417,-4.638169 0.96482,-4.638169 1.48308,0 3.10275,-3.660331 2.41394,-5.455338 -0.82685,-2.154742 -3.86715,-3.678216 -5.8341,-2.923427 -2.89929,1.112563 -3.85958,4.249184 -2.11573,6.910639 0.87025,1.328166 1.57107,4.513528 1.57107,7.14078 0,4.128421 0.48592,5.242844 3.75,8.600289 3.74939,3.85663 3.75,3.85868 3.75,12.542154 0,7.98117 0.16539,8.70858 2.04115,8.97708 1.12263,0.1607 2.36013,-0.0268 2.75,-0.41666 z m -3.29115,-5.37552 c 0,-0.55 0.45,-1 1,-1 0.55,0 1,0.45 1,1 0,0.55 -0.45,1 -1,1 -0.55,0 -1,-0.45 -1,-1 z m -8,-33.999997 c 0,-0.55 0.45,-1 1,-1 0.55,0 1,0.45 1,1 0,0.55 -0.45,1 -1,1 -0.55,0 -1,-0.45 -1,-1 z m 1.29115,39.375517 c 1.0856,-1.08561 0.84227,-10.175024 -0.29115,-10.875514 -0.55,-0.33992 -1,-1.53043 -1,-2.64557 0,-1.11717 -2.69401,-4.83307 -6,-8.27592 -6.66764,-6.94365 -7.73709,-10.84142 -4,-14.578513 2.50936,-2.509364 2.50687,-3.493126 -0.0152,-6.01523 -1.40858,-1.408578 -2.75063,-1.830656 -4.45814,-1.402098 -2.96531,0.744246 -8.71663,-2.923962 -7.90414,-5.041282 0.55241,-1.439628 -2.86918,-5.54139 -4.62252,-5.54139 -1.29694,0 -5,3.703065 -5,5 0,1.808018 4.12314,5.166723 5.63192,4.587751 1.98105,-0.760201 6.94726,3.033834 9.38969,7.173442 1.08811,1.84422 1.97839,5.001856 1.97839,7.01697 0,3.118781 0.85541,4.529798 5.75,9.4847 l 5.75,5.82086 0,7.708134 c 0,6.99784 0.18809,7.73506 2.04115,8.00032 1.12263,0.1607 2.36013,-0.0268 2.75,-0.41666 z m -3.29115,-5.37552 c 0,-0.55 0.45,-1 1,-1 0.55,0 1,0.45 1,1 0,0.55 -0.45,1 -1,1 -0.55,0 -1,-0.45 -1,-1 z m -12,-33.999997 c 0,-0.55 0.45,-1 1,-1 0.55,0 1,0.45 1,1 0,0.55 -0.45,1 -1,1 -0.55,0 -1,-0.45 -1,-1 z m -14,-10 c 0,-0.55 0.45,-1 1,-1 0.55,0 1,0.45 1,1 0,0.55 -0.45,1 -1,1 -0.55,0 -1,-0.45 -1,-1 z m 19.56756,48.684537 c 0.30724,-0.80065 0.41773,-3.41317 0.24553,-5.80559 l -0.31309,-4.349854 -15.75,0.33018 -15.75,0.33018 0,-6.66047 c 0,-3.66326 -0.47581,-7.549522 -1.05735,-8.636145 -0.84011,-1.569765 -0.43997,-3.211165 1.94758,-7.989078 1.65271,-3.307369 2.75058,-6.67623 2.4397,-7.486359 -0.77466,-2.018735 -3.85751,-3.535917 -5.72707,-2.818499 -1.22225,0.469023 -7.60286,11.477463 -7.60286,13.117191 0,0.218157 1.4625,1.730761 3.25,3.361342 3.05164,2.783743 3.28052,3.466949 3.75,11.193628 l 0.5,8.228934 14.19125,0.2771 14.19125,0.2771 0.30875,3.7229 c 0.24772,2.98706 0.75435,3.78618 2.56322,4.04304 1.29107,0.18333 2.49318,-0.30194 2.81309,-1.1356 z m -3.56756,-4.68454 c 0,-0.55 0.45,-1 1,-1 0.55,0 1,0.45 1,1 0,0.55 -0.45,1 -1,1 -0.55,0 -1,-0.45 -1,-1 z m -34,-25.999997 c 0,-0.55 0.45,-1 1,-1 0.55,0 1,0.45 1,1 0,0.55 -0.45,1 -1,1 -0.55,0 -1,-0.45 -1,-1 z m 4,-8 c 0,-0.55 0.45,-1 1,-1 0.55,0 1,0.45 1,1 0,0.55 -0.45,1 -1,1 -0.55,0 -1,-0.45 -1,-1 z m -6.40553,38.614397 c 0.29244,-0.76207 0.39082,-3.34957 0.21862,-5.75 -0.265,-3.694074 -0.66987,-4.414944 -2.63602,-4.693504 -1.66981,-0.23658 -2.4758,0.25546 -2.86663,1.750004 -0.30183,1.15417 -1.36139,2.0791 -2.38176,2.0791 -2.66508,0 -3.63487,-5.992584 -1.49764,-9.254404 1.81918,-2.77643 1.24172,-5.31518 -1.54869,-6.808557 -3.91491,-2.095195 -7.89717,2.422377 -5.62876,6.385407 0.69086,1.20698 1.24641,5.52044 1.24641,9.677554 0,7.08643 0.12809,7.51815 2.32293,7.82911 1.66981,0.23657 2.4758,-0.25547 2.86663,-1.75 0.69373,-2.65281 3.91268,-2.70817 4.60019,-0.0791 0.60282,2.30521 4.48343,2.75467 5.30472,0.6144 z m -3.59447,-4.6144 c 0,-0.55 0.45,-1 1,-1 0.55,0 1,0.45 1,1 0,0.55 -0.45,1 -1,1 -0.55,0 -1,-0.45 -1,-1 z m -10,0 c 0,-0.55 0.45,-1 1,-1 0.55,0 1,0.45 1,1 0,0.55 -0.45,1 -1,1 -0.55,0 -1,-0.45 -1,-1 z m 0,-13.999994 c 0,-0.55 0.45,-1 1,-1 0.55,0 1,0.45 1,1 0,0.55 -0.45,1 -1,1 -0.55,0 -1,-0.45 -1,-1 z m -6.70885,19.375514 c 1.0856,-1.08561 0.84227,-10.175024 -0.29115,-10.875514 -0.55,-0.33992 -1,-2.96698 -1,-5.83791 0,-5.09384 0.15601,-5.37449 6.46122,-11.623662 3.56222,-3.530547 7.44295,-6.476117 8.64926,-6.564988 2.05159,-0.151145 4.88952,-2.858509 4.88952,-4.664573 0,-0.444878 -0.9,-1.70887 -2,-2.80887 -1.44208,-1.442081 -2,-3.333333 -2,-6.779664 0,-4.743257 0.0514,-4.817525 6.75,-9.75 l 6.75,-4.970336 0.2999,-5.75 c 0.16495,-3.1625 0.71162,-5.75 1.21482,-5.75 0.5032,0 1.39658,-0.9 1.98528,-2 2.02055,-3.775438 -2.19258,-8.037671 -5.95479,-6.024194 -2.67937,1.433953 -3.2875,4.005467 -1.5679,6.629916 0.83748,1.278151 1.52269,4.309452 1.52269,6.736225 0,4.309781 -0.16266,4.530997 -7,9.519683 l -7,5.10737 0,5.550683 c 0,3.38387 -0.6192,6.495704 -1.5862,7.971524 -0.8724,1.331463 -1.2672,2.936976 -0.87733,3.567808 0.41927,0.678382 -2.16983,4.066823 -6.33739,8.293976 l -7.04625,7.147012 -0.32642,11.5 c -0.31051,10.939644 -0.22695,11.514234 1.71474,11.792174 1.12263,0.1607 2.36013,-0.0268 2.75,-0.41666 z m -3.29115,-5.37552 c 0,-0.55 0.45,-1 1,-1 0.55,0 1,0.45 1,1 0,0.55 -0.45,1 -1,1 -0.55,0 -1,-0.45 -1,-1 z m 16,-33.999997 c 0,-0.55 0.45,-1 1,-1 0.55,0 1,0.45 1,1 0,0.55 -0.45,1 -1,1 -0.55,0 -1,-0.45 -1,-1 z m 14,-40 c 0,-0.55 0.45,-1 1,-1 0.55,0 1,0.45 1,1 0,0.55 -0.45,1 -1,1 -0.55,0 -1,-0.45 -1,-1 z M 108.30434,109.7854 c 1.0856,-1.08561 0.84227,-10.175024 -0.29115,-10.875514 -0.55,-0.33992 -1,-2.58635 -1,-4.99207 0,-3.96488 0.41694,-4.71569 4.45725,-8.026419 2.45149,-2.008811 4.91719,-3.368129 5.47934,-3.020705 1.35447,0.83711 4.67034,-0.994095 5.44217,-3.005471 0.33774,-0.880122 0.17163,-2.426916 -0.36912,-3.437319 -2.20122,-4.113024 5.09315,-13.067012 9.32282,-11.443938 1.53793,0.59016 5.66754,-2.742707 5.66754,-4.574081 0,-0.55 -0.9,-1.9 -2,-3 -1.1,-1.1 -2.45,-2 -3,-2 -1.59994,0 -5.16396,4.010444 -4.72114,5.3125 0.60436,1.777042 -5.97949,5.917292 -8.25914,5.193758 -2.5522,-0.810037 -6.45482,2.99851 -5.45249,5.321061 1.82154,4.220781 0.21888,8.626661 -4.85125,13.336549 l -4.66778,4.336135 -0.2741,10.5 c -0.25878,9.913254 -0.16004,10.516324 1.76705,10.792174 1.12263,0.1607 2.36013,-0.0268 2.75,-0.41666 z m -3.29115,-5.37552 c 0,-0.55 0.45,-1 1,-1 0.55,0 1,0.45 1,1 0,0.55 -0.45,1 -1,1 -0.55,0 -1,-0.45 -1,-1 z m 12,-25.999997 c 0,-0.55 0.45,-1 1,-1 0.55,0 1,0.45 1,1 0,0.55 -0.45,1 -1,1 -0.55,0 -1,-0.45 -1,-1 z m 0,-8 c 0,-0.55 0.45,-1 1,-1 0.55,0 1,0.45 1,1 0,0.55 -0.45,1 -1,1 -0.55,0 -1,-0.45 -1,-1 z m 14,-10 c 0,-0.55 0.45,-1 1,-1 0.55,0 1,0.45 1,1 0,0.55 -0.45,1 -1,1 -0.55,0 -1,-0.45 -1,-1 z M 98.30434,109.7854 c 0.38987,-0.38987 0.70885,-3.3073 0.70885,-6.48317 0,-3.17587 0.45,-6.052424 1,-6.392344 0.55,-0.33992 1,-3.333 1,-6.65129 0,-4.519058 0.50195,-6.67138 2,-8.575842 1.1,-1.398424 2,-3.381902 2,-4.40773 0,-1.025827 0.9,-2.765141 2,-3.865141 1.1,-1.1 2,-2.45 2,-3 0,-0.55 -0.9,-1.9 -2,-3 -1.53649,-1.536489 -1.99981,-3.332594 -1.99918,-7.75 l 8.2e-4,-5.75 6.74918,-4 6.74918,-4 0.2999,-5.75 c 0.16495,-3.1625 0.63951,-5.75 1.05459,-5.75 0.76276,0 6.1739,5.149074 9.39551,8.940481 2.18547,2.572006 3.22673,2.582784 5.75,0.05952 2.50936,-2.509364 2.50687,-3.493126 -0.0152,-6.01523 -1.40858,-1.408578 -2.75063,-1.830656 -4.45814,-1.402098 -2.6632,0.668422 -8.99928,-3.008899 -7.99214,-4.638472 0.77578,-1.255247 -1.14874,-4.582197 -3.07915,-5.322965 -1.99146,-0.764194 -5.01048,0.777103 -5.86038,2.99189 -0.35218,0.917777 0.0449,2.714445 0.88235,3.992597 0.83748,1.278151 1.52232,4.252244 1.52187,6.609095 -8.1e-4,4.228271 -0.0905,4.338307 -6.75,8.285183 l -6.74918,4 -0.29817,6.858696 c -0.17735,4.079592 -0.93304,7.827639 -1.86501,9.25 -1.42588,2.176174 -1.42155,2.613047 0.0482,4.856121 2.15793,3.293416 2.0357,5.844489 -0.38499,8.035183 -1.5909,1.439741 -2,3.079967 -2,8.018622 0,5.32676 -0.36334,6.57199 -2.55799,8.76664 -2.15992,2.15992 -2.51006,3.309384 -2.25,7.386364 0.2536,3.97564 0.66847,4.87997 2.34914,5.12055 1.12263,0.1607 2.36013,-0.0268 2.75,-0.41666 z m -3.29115,-5.37552 c 0,-0.55 0.45,-1 1,-1 0.55,0 1,0.45 1,1 0,0.55 -0.45,1 -1,1 -0.55,0 -1,-0.45 -1,-1 z m 8,-33.999997 c 0,-0.55 0.45,-1 1,-1 0.55,0 1,0.45 1,1 0,0.55 -0.45,1 -1,1 -0.55,0 -1,-0.45 -1,-1 z m 28,-30 c 0,-0.55 0.45,-1 1,-1 0.55,0 1,0.45 1,1 0,0.55 -0.45,1 -1,1 -0.55,0 -1,-0.45 -1,-1 z m -14,-10 c 0,-0.55 0.45,-1 1,-1 0.55,0 1,0.45 1,1 0,0.55 -0.45,1 -1,1 -0.55,0 -1,-0.45 -1,-1 z M 68.30434,109.7854 c 0.38987,-0.38987 0.70885,-2.86802 0.70885,-5.507 0,-3.54633 -0.4566,-5.042514 -1.75012,-5.734784 -0.96256,-0.51515 -3.66256,-4.3561 -6,-8.53544 l -4.24988,-7.598809 0,-13.499742 c 0,-12.166409 0.19753,-13.697277 2,-15.499742 1.1,-1.1 2,-2.45 2,-3 0,-1.877729 -4.12994,-5.164114 -5.72194,-4.553209 -0.86201,0.330786 -2.34052,-0.09832 -3.28556,-0.953581 -1.40467,-1.271202 -4.07033,-1.503744 -14.60539,-1.274111 l -12.88711,0.280901 -0.28732,9.842146 c -0.19711,6.751956 -0.76889,10.577098 -1.82108,12.182942 -2.60191,3.97102 1.44755,8.701732 5.56319,6.499106 0.99545,-0.532749 2.08624,-1.688734 2.42397,-2.568856 0.68881,-1.795007 -0.93086,-5.455338 -2.41394,-5.455338 -0.54829,0 -0.96482,-3.885467 -0.96482,-9 l 0,-9 11.37756,0 c 8.29812,0 11.679,0.363226 12.49132,1.342009 0.61257,0.738105 0.83172,1.624062 0.48699,1.968792 -0.34473,0.34473 0.10917,1.749994 1.00867,3.122807 1.30265,1.988089 1.63546,5.148663 1.63546,15.531209 l 0,13.035183 -5,0 c -2.75,0 -5,-0.434167 -5,-0.964816 0,-0.530649 -0.9,-1.446482 -2,-2.035184 -3.77544,-2.020553 -8.03767,2.192578 -6.02419,5.954793 1.43395,2.67937 4.00546,3.2875 6.62991,1.567892 1.27815,-0.837477 4.50602,-1.522685 7.17305,-1.522685 l 4.84913,0 3.86717,6.750003 c 2.86796,5.00593 4.01415,8.30028 4.43605,12.749994 0.47904,5.05241 0.89124,6.04614 2.61003,6.29218 1.12263,0.1607 2.36013,-0.0268 2.75,-0.41666 z m -3.29115,-5.37552 c 0,-0.55 0.45,-1 1,-1 0.55,0 1,0.45 1,1 0,0.55 -0.45,1 -1,1 -0.55,0 -1,-0.45 -1,-1 z m -26,-21.999997 c 0,-0.55 0.45,-1 1,-1 0.55,0 1,0.45 1,1 0,0.55 -0.45,1 -1,1 -0.55,0 -1,-0.45 -1,-1 z m -14,-14 c 0,-0.55 0.45,-1 1,-1 0.55,0 1,0.45 1,1 0,0.55 -0.45,1 -1,1 -0.55,0 -1,-0.45 -1,-1 z m 30,-18 c 0,-0.55 0.45,-1 1,-1 0.55,0 1,0.45 1,1 0,0.55 -0.45,1 -1,1 -0.55,0 -1,-0.45 -1,-1 z m 3.29115,59.375517 c 1.3919,-1.3919 0.78082,-10.410674 -0.74506,-10.996204 -0.79966,-0.30686 -2.35948,-2.09274 -3.46628,-3.96862 l -2.01236,-3.41069 -11.46288,0 -11.46288,0 -3.12058,4.62382 c -2.57364,3.81342 -3.06804,5.434644 -2.82084,9.249994 0.27134,4.188 0.53653,4.62618 2.79973,4.62618 2.35159,0 2.5066,-0.32798 2.61115,-5.52484 0.20397,-10.138834 0.01,-9.975154 11.84925,-9.975154 11.84571,0 11.52816,-0.24205 12.46352,9.499994 0.48482,5.04952 0.89943,6.04629 2.61723,6.29218 1.12263,0.1607 2.36013,-0.0268 2.75,-0.41666 z m -3.29115,-5.37552 c 0,-0.55 0.45,-1 1,-1 0.55,0 1,0.45 1,1 0,0.55 -0.45,1 -1,1 -0.55,0 -1,-0.45 -1,-1 z m -30,0 c 0,-0.55 0.45,-1 1,-1 0.55,0 1,0.45 1,1 0,0.55 -0.45,1 -1,1 -0.55,0 -1,-0.45 -1,-1 z m 260.76146,4.3339 c 1.87274,-0.75447 3.31853,-3.96186 2.61377,-5.79844 -0.33968,-0.88519 -1.91306,-2.27933 -3.49641,-3.098124 l -2.87882,-1.48869 0,-15.509506 c 0,-12.204793 0.32445,-16.004675 1.52268,-17.833415 1.71961,-2.624449 1.11148,-5.195963 -1.56789,-6.629916 -4.15262,-2.222413 -8.1614,2.533737 -5.52587,6.556068 1.20825,1.844023 1.57108,5.177154 1.57108,14.432943 l 0,12.035186 -5.5,0 -5.5,0 0,-4.5 c 0,-2.475003 0.43416,-4.500003 0.96481,-4.500003 0.53065,0 1.44648,-0.9 2.03519,-2 2.02055,-3.775438 -2.19258,-8.037671 -5.9548,-6.024194 -2.6523,1.41947 -3.29238,3.998015 -1.62436,6.543734 0.80642,1.230751 1.60413,4.654844 1.77269,7.609093 l 0.30647,5.37137 6.64284,0.29324 c 7.30611,0.32253 7.15976,0.15158 8.22642,9.609254 0.18004,1.59637 1.15662,3.50887 2.17017,4.25 1.95823,1.43189 2.2445,1.47809 4.22203,0.6814 z m -2.76146,-4.3339 c 0,-0.55 0.45,-1 1,-1 0.55,0 1,0.45 1,1 0,0.55 -0.45,1 -1,1 -0.55,0 -1,-0.45 -1,-1 z m -18,-25.999997 c 0,-0.55 0.45,-1 1,-1 0.55,0 1,0.45 1,1 0,0.55 -0.45,1 -1,1 -0.55,0 -1,-0.45 -1,-1 z m 14,-16 c 0,-0.55 0.45,-1 1,-1 0.55,0 1,0.45 1,1 0,0.55 -0.45,1 -1,1 -0.55,0 -1,-0.45 -1,-1 z m -90,31.000003 c 1.1,-1.1 2,-2.45 2,-3 0,-1.21214 -3.66626,-5.000003 -4.83948,-5.000003 -1.65711,0 -3.2174,-5.025204 -2.16871,-6.984705 1.22043,-2.280383 0.39078,-4.740171 -2.03702,-6.039489 -3.76221,-2.013477 -7.97534,2.248756 -5.95479,6.024194 0.5887,1.1 1.42119,2 1.84997,2 1.37318,0 4.23934,7.143233 3.63287,9.054063 -0.36042,1.13558 0.2026,2.63138 1.46601,3.89478 2.55907,2.55908 3.53498,2.56733 6.05115,0.0512 z m -4,-3 c 0,-0.55 0.45,-1 1,-1 0.55,0 1,0.45 1,1 0,0.55 -0.45,1 -1,1 -0.55,0 -1,-0.45 -1,-1 z m -6,-14.000003 c 0,-0.55 0.45,-1 1,-1 0.55,0 1,0.45 1,1 0,0.55 -0.45,1 -1,1 -0.55,0 -1,-0.45 -1,-1 z m 55.96123,16.072443 c 2.28559,-4.27068 -1.72693,-6.901783 -8.56819,-5.61836 -2.69157,0.50495 -4.07071,0.24261 -5.49342,-1.044926 -1.76008,-1.592846 -1.89962,-3.389694 -1.89962,-24.460552 l 0,-22.741421 -3.4853,-3.060128 c -2.11356,-1.855732 -3.26386,-3.637169 -2.92267,-4.526273 0.5757,-1.500258 -2.79066,-5.620783 -4.59203,-5.620783 -0.55,0 -1.9,0.9 -3,2 -2.04376,2.043755 -7,2.776701 -7,1.035184 0,-1.483087 -3.66033,-3.102758 -5.45534,-2.413949 -2.48656,0.954185 -3.7825,4.065836 -2.60762,6.261116 1.47071,2.748048 4.02078,3.375305 6.66868,1.640334 2.95864,-1.938573 5.83795,-1.933315 8.81312,0.01609 1.29166,0.84633 2.79663,1.40883 3.34438,1.25 0.54775,-0.158829 2.4001,0.737192 4.11634,1.991157 l 3.12044,2.279943 0,22.795748 0,22.795749 2.6061,2.424311 c 1.43335,1.33338 2.99721,3.43682 3.47524,4.67432 0.75502,1.95453 1.59003,2.25 6.35872,2.25 4.39734,0 5.69482,-0.38352 6.52117,-1.92756 z m -3.96123,-2.07244 c 0,-0.55 0.45,-1 1,-1 0.55,0 1,0.45 1,1 0,0.55 -0.45,1 -1,1 -0.55,0 -1,-0.45 -1,-1 z m -24,-60.000003 c 0,-0.55 0.45,-1 1,-1 0.55,0 1,0.45 1,1 0,0.55 -0.45,1 -1,1 -0.55,0 -1,-0.45 -1,-1 z m -14,0 c 0,-0.55 0.45,-1 1,-1 0.55,0 1,0.45 1,1 0,0.55 -0.45,1 -1,1 -0.55,0 -1,-0.45 -1,-1 z M 90.95427,84.519971 c 1.36488,-2.550289 1.35075,-2.675403 -0.51251,-4.538659 -1.94241,-1.942413 -10.3025,-2.115317 -12.83241,-0.265401 -1.09791,0.80281 -1.65318,2.247699 -1.44113,3.75 0.32164,2.278674 0.79752,2.46388 7.03605,2.738319 5.81581,0.255842 6.8296,0.03552 7.75,-1.684259 z m -3.94108,-2.110088 c 0,-0.55 0.45,-1 1,-1 0.55,0 1,0.45 1,1 0,0.55 -0.45,1 -1,1 -0.55,0 -1,-0.45 -1,-1 z m -8,0 c 0,-0.55 0.45,-1 1,-1 0.55,0 1,0.45 1,1 0,0.55 -0.45,1 -1,1 -0.55,0 -1,-0.45 -1,-1 z m 11.94108,-9.889912 c 1.36488,-2.550289 1.35075,-2.675403 -0.51251,-4.538659 -1.94241,-1.942413 -10.3025,-2.115317 -12.83241,-0.265401 -1.09791,0.80281 -1.65318,2.247699 -1.44113,3.75 0.32164,2.278674 0.79752,2.46388 7.03605,2.738319 5.81581,0.255842 6.8296,0.03552 7.75,-1.684259 z m -3.94108,-2.110088 c 0,-0.55 0.45,-1 1,-1 0.55,0 1,0.45 1,1 0,0.55 -0.45,1 -1,1 -0.55,0 -1,-0.45 -1,-1 z m -8,0 c 0,-0.55 0.45,-1 1,-1 0.55,0 1,0.45 1,1 0,0.55 -0.45,1 -1,1 -0.55,0 -1,-0.45 -1,-1 z M 42.9028,72.616149 c 0.52799,-0.986554 1.08757,-5.536542 1.24351,-10.111084 0.24587,-7.212609 0.0312,-8.501831 -1.61592,-9.706266 -2.35285,-1.720445 -2.68068,-1.721076 -5.02118,-0.0097 -1.65256,1.208386 -1.85287,2.53586 -1.61691,10.715579 0.14813,5.134981 0.48749,9.689318 0.75413,10.120749 0.91899,1.486962 5.29853,0.780429 6.25637,-1.009313 z m -3.88961,-2.206266 c 0,-0.55 0.45,-1 1,-1 0.55,0 1,0.45 1,1 0,0.55 -0.45,1 -1,1 -0.55,0 -1,-0.45 -1,-1 z m 0,-14 c 0,-0.55 0.45,-1 1,-1 0.55,0 1,0.45 1,1 0,0.55 -0.45,1 -1,1 -0.55,0 -1,-0.45 -1,-1 z m 46,5 c 1.1,-1.1 2,-2.45 2,-3 0,-1.296935 -3.70306,-5 -5,-5 -0.55,0 -1.9,0.9 -3,2 -2.5364,2.536402 -5.45188,2.548115 -7.96799,0.03201 -1.69645,-1.696447 -2.0069,-3.593654 -2.25,-13.75 L 68.51319,29.909883 64.699,29.595691 c -2.12306,-0.174886 -4.69517,-1.195168 -5.80115,-2.301153 -1.24724,-1.247232 -2.69553,-1.762069 -3.89023,-1.382887 -1.04679,0.33224 -3.0186,-0.126724 -4.38179,-1.01992 -1.8658,-1.222523 -2.96044,-1.366078 -4.42793,-0.5807 -4.2848,2.293153 -3.30928,7.598474 1.59415,8.66972 1.49663,0.326966 4.03352,1.009973 5.63753,1.517793 2.15818,0.683263 3.51395,0.531776 5.21482,-0.582676 1.26413,-0.828292 3.43926,-1.505985 4.83361,-1.505985 l 2.53518,0 0,10.535183 c 0,7.892297 -0.39412,11.136692 -1.57107,12.932943 -2.9063,4.435572 1.72271,8.972983 6.17679,6.054559 2.90589,-1.90401 6.31067,-1.900496 8.83541,0.0091 2.53601,1.918163 3.16953,1.857556 5.55887,-0.531785 z m -4,-3 c 0,-0.55 0.45,-1 1,-1 0.55,0 1,0.45 1,1 0,0.55 -0.45,1 -1,1 -0.55,0 -1,-0.45 -1,-1 z m -14,0 c 0,-0.55 0.45,-1 1,-1 0.55,0 1,0.45 1,1 0,0.55 -0.45,1 -1,1 -0.55,0 -1,-0.45 -1,-1 z m -12,-28 c 0,-0.55 0.45,-1 1,-1 0.55,0 1,0.45 1,1 0,0.55 -0.45,1 -1,1 -0.55,0 -1,-0.45 -1,-1 z m -8,-2 c 0,-0.55 0.45,-1 1,-1 0.55,0 1,0.45 1,1 0,0.55 -0.45,1 -1,1 -0.55,0 -1,-0.45 -1,-1 z m 60.25,4.75 c 2.09925,-2.099246 2.15733,-2.810688 0.42308,-5.18241 -1.90989,-2.611926 -14.39445,-2.84622 -16.92308,-0.31759 -2.09925,2.099246 -2.15733,2.810688 -0.42308,5.18241 1.90989,2.611926 14.39445,2.84622 16.92308,0.31759 z m -4.25,-2.75 c 0,-0.55 0.45,-1 1,-1 0.55,0 1,0.45 1,1 0,0.55 -0.45,1 -1,1 -0.55,0 -1,-0.45 -1,-1 z m -10,0 c 0,-0.55 0.45,-1 1,-1 0.55,0 1,0.45 1,1 0,0.55 -0.45,1 -1,1 -0.55,0 -1,-0.45 -1,-1 z m -64,4.008524 c 1.375,-0.45847 3.72451,-1.103257 5.22114,-1.43286 3.40353,-0.749564 5.2425,-3.840828 3.84182,-6.458015 -1.48395,-2.772801 -4.02737,-3.37099 -6.74945,-1.587414 -1.32257,0.866583 -3.26115,1.303773 -4.30794,0.971533 -1.91655,-0.60829 -6.00557,2.454425 -6.00557,4.498232 0,1.205659 3.69359,5.032254 4.75,4.921053 0.4125,-0.04342 1.875,-0.454059 3.25,-0.912529 z m -4,-4.008524 c 0,-0.55 0.45,-1 1,-1 0.55,0 1,0.45 1,1 0,0.55 -0.45,1 -1,1 -0.55,0 -1,-0.45 -1,-1 z m 8,-2 c 0,-0.55 0.45,-1 1,-1 0.55,0 1,0.45 1,1 0,0.55 -0.45,1 -1,1 -0.55,0 -1,-0.45 -1,-1 z"
     id="path2995"
     inkscape:connector-curvature="0" />
</svg>
